<svg width="16" height="22" viewBox="0 0 16 22" fill="none" xmlns="http://www.w3.org/2000/svg">
<path d="M3.79053 10.6084H11.5425C11.7241 10.6084 11.8765 10.5469 11.9995 10.4238C12.1284 10.2949 12.1929 10.1426 12.1929 9.9668C12.1929 9.78516 12.1284 9.62988 11.9995 9.50098C11.8765 9.37207 11.7241 9.30762 11.5425 9.30762H3.79053C3.60889 9.30762 3.45361 9.37207 3.32471 9.50098C3.20166 9.62988 3.14014 9.78516 3.14014 9.9668C3.14014 10.1426 3.20166 10.2949 3.32471 10.4238C3.45361 10.5469 3.60889 10.6084 3.79053 10.6084ZM3.79053 13.8428H11.5425C11.7241 13.8428 11.8765 13.7812 11.9995 13.6582C12.1284 13.5293 12.1929 13.374 12.1929 13.1924C12.1929 13.0107 12.1284 12.8584 11.9995 12.7354C11.8765 12.6123 11.7241 12.5508 11.5425 12.5508H3.79053C3.60889 12.5508 3.45361 12.6123 3.32471 12.7354C3.20166 12.8584 3.14014 13.0107 3.14014 13.1924C3.14014 13.374 3.20166 13.5293 3.32471 13.6582C3.45361 13.7812 3.60889 13.8428 3.79053 13.8428ZM3.79053 17.2617H7.76318C7.93896 17.2617 8.09131 17.1973 8.22021 17.0684C8.34912 16.9336 8.41357 16.7783 8.41357 16.6025C8.41357 16.4209 8.34912 16.2686 8.22021 16.1455C8.09717 16.0225 7.94482 15.9609 7.76318 15.9609H3.79053C3.60889 15.9609 3.45361 16.0225 3.32471 16.1455C3.20166 16.2686 3.14014 16.4209 3.14014 16.6025C3.14014 16.7783 3.20166 16.9336 3.32471 17.0684C3.45361 17.1973 3.60889 17.2617 3.79053 17.2617ZM2.99951 21.876C2.06787 21.876 1.35889 21.6299 0.872559 21.1377C0.38623 20.6455 0.143066 19.9277 0.143066 18.9844V5.67773C0.143066 4.72852 0.383301 4.00781 0.86377 3.51562C1.34424 3.02344 2.03271 2.77734 2.9292 2.77734H3.11377C3.10205 2.81836 3.09033 2.8623 3.07861 2.90918C3.07275 2.95605 3.06982 3.00293 3.06982 3.0498V4.06934C3.06982 4.63184 3.24268 5.09766 3.58838 5.4668C3.93994 5.83008 4.39697 6.01172 4.95947 6.01172H10.3735C10.936 6.01172 11.3901 5.83008 11.7358 5.4668C12.0874 5.09766 12.2632 4.63184 12.2632 4.06934V3.0498C12.2632 3.00293 12.2573 2.95605 12.2456 2.90918C12.2397 2.8623 12.231 2.81836 12.2192 2.77734H12.4038C13.3003 2.77734 13.9888 3.02344 14.4692 3.51562C14.9497 4.00781 15.1899 4.72852 15.1899 5.67773V18.9844C15.1899 19.9277 14.9468 20.6455 14.4604 21.1377C13.9741 21.6299 13.2622 21.876 12.3247 21.876H2.99951ZM4.95947 4.97461C4.68994 4.97461 4.479 4.89551 4.32666 4.7373C4.18018 4.5791 4.10693 4.35645 4.10693 4.06934V3.14648C4.10693 2.85937 4.18018 2.63672 4.32666 2.47852C4.479 2.32031 4.68994 2.24121 4.95947 2.24121H5.70654C5.73584 1.73145 5.93799 1.29785 6.31299 0.94043C6.68799 0.577148 7.13916 0.395508 7.6665 0.395508C8.18799 0.395508 8.63623 0.577148 9.01123 0.94043C9.39209 1.29785 9.59717 1.73145 9.62646 2.24121H10.3735C10.6431 2.24121 10.8511 2.32031 10.9976 2.47852C11.1499 2.63672 11.2261 2.85937 11.2261 3.14648V4.06934C11.2261 4.35645 11.1499 4.5791 10.9976 4.7373C10.8511 4.89551 10.6431 4.97461 10.3735 4.97461H4.95947ZM7.6665 3.09375C7.8833 3.09375 8.06494 3.01758 8.21143 2.86523C8.36377 2.70703 8.43994 2.52539 8.43994 2.32031C8.43994 2.10352 8.36377 1.91895 8.21143 1.7666C8.06494 1.61426 7.8833 1.53809 7.6665 1.53809C7.44971 1.53809 7.26514 1.61426 7.11279 1.7666C6.96631 1.91895 6.89307 2.10352 6.89307 2.32031C6.89307 2.52539 6.96631 2.70703 7.11279 2.86523C7.26514 3.01758 7.44971 3.09375 7.6665 3.09375Z" fill="#F9F9F9"/>
</svg>
