<svg width="20" height="17" viewBox="0 0 20 17" fill="none" xmlns="http://www.w3.org/2000/svg">
<path d="M4.3042 16.4502C3.82373 16.4502 3.44873 16.3125 3.1792 16.0371C2.90967 15.7676 2.70752 15.416 2.57275 14.9824L0.788574 9.17285C0.759277 9.08496 0.73291 8.99414 0.709473 8.90039C0.691895 8.80664 0.683105 8.70703 0.683105 8.60156C0.683105 8.33789 0.773926 8.11523 0.955566 7.93359C1.14307 7.74609 1.38037 7.65234 1.66748 7.65234C1.93115 7.65234 2.14209 7.72266 2.30029 7.86328C2.4585 8.00391 2.57861 8.21777 2.66064 8.50488L4.24268 14.0684H4.41846L8.05713 2.15039C8.20361 1.67578 8.41455 1.33008 8.68994 1.11328C8.96533 0.890625 9.37549 0.779297 9.92041 0.779297H18.9731C19.2778 0.779297 19.521 0.867188 19.7026 1.04297C19.8901 1.21875 19.9839 1.4502 19.9839 1.7373C19.9839 2.03027 19.8901 2.26758 19.7026 2.44922C19.521 2.625 19.2778 2.71289 18.9731 2.71289H9.96436L6.13232 14.9033C5.97998 15.3486 5.76318 15.7178 5.48193 16.0107C5.20654 16.3037 4.81396 16.4502 4.3042 16.4502ZM11.6519 14.7803C11.4175 14.7803 11.2241 14.707 11.0718 14.5605C10.9194 14.4141 10.8433 14.2295 10.8433 14.0068C10.8433 13.8018 10.9106 13.6055 11.0454 13.418L13.313 10.3154L11.1685 7.37109C11.0044 7.16602 10.9224 6.95215 10.9224 6.72949C10.9224 6.50684 11.0044 6.31641 11.1685 6.1582C11.3384 6 11.5435 5.9209 11.7837 5.9209C11.9712 5.9209 12.1265 5.95898 12.2495 6.03516C12.3726 6.10547 12.4985 6.2373 12.6274 6.43066L14.4907 9.14648H14.5435L16.3364 6.43945C16.4653 6.24609 16.5913 6.11133 16.7144 6.03516C16.8374 5.95898 16.9897 5.9209 17.1714 5.9209C17.4116 5.9209 17.6108 5.99707 17.769 6.14941C17.9272 6.2959 18.0063 6.48047 18.0063 6.70312C18.0063 6.9082 17.9302 7.11035 17.7778 7.30957L15.5278 10.3506L17.7603 13.374C17.9067 13.5674 17.98 13.7695 17.98 13.9805C17.98 14.2148 17.8979 14.4082 17.7339 14.5605C17.5757 14.707 17.3735 14.7803 17.1274 14.7803C16.9399 14.7803 16.7876 14.7422 16.6704 14.666C16.5532 14.584 16.4243 14.4434 16.2837 14.2441L14.4204 11.5459H14.3765L12.4956 14.2441C12.355 14.4434 12.2231 14.584 12.1001 14.666C11.9829 14.7422 11.8335 14.7803 11.6519 14.7803Z" fill="#F9F9F9"/>
</svg>
